{"accessors":[{"bufferView":0,"componentType":5121,"count":12,"max":[7],"min":[0],"type":"SCALAR"},{"bufferView":1,"componentType":5126,"count":8,"max":[4.895893573760986,4.802283763885498,4.077141284942627],"min":[-4.895893573760986,3.2196173667907715,2.406228542327881],"type":"VEC3"},{"bufferView":2,"componentType":5126,"count":8,"max":[0.40285858511924744,0.04095037281513214,0.9143456816673279],"min":[-0.40285855531692505,0.040950365364551544,0.9143456816673279],"type":"VEC3"},{"bufferView":3,"componentType":5126,"count":8,"max":[0.37434470653533936,0.5883447527885437],"min":[0.19824206829071045,0.510749876499176],"type":"VEC2"},{"bufferView":4,"componentType":5126,"count":8,"max":[1.0,1.0,1.0,1.0],"min":[1.0,1.0,1.0,1.0],"type":"VEC4"},{"bufferView":5,"componentType":5121,"count":270,"max":[181],"min":[0],"type":"SCALAR"},{"bufferView":6,"componentType":5126,"count":182,"max":[5.935934066772461,1.5559768676757812,7.680642127990723],"min":[-5.935934066772461,-6.780843734741211,0.2664351463317871],"type":"VEC3"},{"bufferView":7,"componentType":5126,"count":182,"max":[0.912935733795166,0.9751744270324707,0.9718703031539917],"min":[-0.9129357933998108,-0.9981839060783386,-0.44377613067626953],"type":"VEC3"},{"bufferView":8,"componentType":5126,"count":182,"max":[0.7213488817214966,1.1050533056259155],"min":[-0.034174755215644836,0.5929186344146729],"type":"VEC2"},{"bufferView":9,"componentType":5126,"count":182,"max":[1.0,1.0,1.0,1.0],"min":[1.0,1.0,1.0,1.0],"type":"VEC4"},{"bufferView":10,"componentType":5123,"count":750,"max":[501],"min":[0],"type":"SCALAR"},{"bufferView":11,"componentType":5126,"count":502,"max":[6.178668975830078,20.531538009643555,8.076620101928711],"min":[-6.178668975830078,-9.351371765136719,-9.343769073486328],"type":"VEC3"},{"bufferView":12,"componentType":5126,"count":502,"max":[0.9986292719841003,0.9823176264762878,0.9749271273612976],"min":[-0.9986292719841003,-0.9990060925483704,-0.9667712450027466],"type":"VEC3"},{"bufferView":13,"componentType":5126,"count":502,"max":[1.0,1.009556531906128],"min":[-0.06317561864852905,0.0],"type":"VEC2"},{"bufferView":14,"componentType":5126,"count":502,"max":[1.0,1.0,1.0,1.0],"min":[1.0,1.0,1.0,1.0],"type":"VEC4"},{"bufferView":15,"componentType":5123,"count":22029,"max":[9709],"min":[0],"type":"SCALAR"},{"bufferView":16,"componentType":5126,"count":9710,"max":[5.081465244293213,0.0,1.1784483194351196],"min":[-5.033189296722412,0.0,-0.6594827771186829],"type":"VEC3"},{"bufferView":17,"componentType":5126,"count":9710,"max":[0.0,1.0,-0.0],"min":[0.0,0.0,-0.0],"type":"VEC3"},{"bufferView":18,"componentType":5126,"count":9710,"max":[1.0,1.0],"min":[0.0,1.0],"type":"VEC2"},{"bufferView":19,"componentType":5126,"count":241,"max":[8.0],"min":[0.0],"type":"SCALAR"},{"bufferView":20,"componentType":5126,"count":241,"max":[0.014599345624446869,1.7838187217712402,1.6587953567504883],"min":[0.014599345624446869,1.7838187217712402,1.6587953567504883],"type":"VEC3"},{"bufferView":21,"componentType":5126,"count":241,"max":[8.0],"min":[0.0],"type":"SCALAR"},{"bufferView":22,"componentType":5126,"count":241,"max":[0.06849358975887299,0.9976420402526855,-0.0,0.9976515769958496],"min":[-0.06849101185798645,0.0,-0.06849294900894165,-0.9976135492324829],"type":"VEC4"},{"bufferView":23,"componentType":5126,"count":241,"max":[8.0],"min":[0.0],"type":"SCALAR"},{"bufferView":24,"componentType":5126,"count":241,"max":[0.551140546798706,0.5074204206466675,0.506018340587616],"min":[0.551140546798706,0.5074204206466675,0.506018340587616],"type":"VEC3"},{"bufferView":25,"componentType":5126,"count":241,"max":[8.0],"min":[0.0],"type":"SCALAR"},{"bufferView":26,"componentType":5126,"count":241,"max":[0.0,-4.669867038726807,1.9170094728469849],"min":[0.0,-4.669867038726807,1.9170094728469849],"type":"VEC3"},{"bufferView":27,"componentType":5126,"count":241,"max":[8.0],"min":[0.0],"type":"SCALAR"},{"bufferView":28,"componentType":5126,"count":241,"max":[0.7071067690849304,0.0,-0.0,0.7071067690849304],"min":[0.7071067690849304,0.0,-0.0,0.7071067690849304],"type":"VEC4"},{"bufferView":29,"componentType":5126,"count":241,"max":[8.0],"min":[0.0],"type":"SCALAR"},{"bufferView":30,"componentType":5126,"count":241,"max":[1.8369323015213013,1.8369323015213013,1.8369323015213013],"min":[1.6433619260787964,1.6433619260787964,1.6433619260787964],"type":"VEC3"}],"animations":[{"channels":[{"sampler":0,"target":{"node":0,"path":"rotation"}},{"sampler":1,"target":{"node":0,"path":"translation"}},{"sampler":2,"target":{"node":0,"path":"scale"}}],"extensions":{"S8S_v3d_animation_data":{"auto":true,"loop":"REPEAT","offset":0.0,"repeatCount":1.0,"repeatInfinite":true}},"name":"Batema","samplers":[{"input":21,"interpolation":"LINEAR","output":22},{"input":19,"interpolation":"LINEAR","output":20},{"input":23,"interpolation":"LINEAR","output":24}]},{"channels":[{"sampler":0,"target":{"node":6,"path":"translation"}},{"sampler":1,"target":{"node":6,"path":"rotation"}},{"sampler":2,"target":{"node":6,"path":"scale"}}],"extensions":{"S8S_v3d_animation_data":{"auto":true,"loop":"REPEAT","offset":0.0,"repeatCount":1.0,"repeatInfinite":true}},"name":"Text","samplers":[{"input":25,"interpolation":"LINEAR","output":26},{"input":27,"interpolation":"LINEAR","output":28},{"input":29,"interpolation":"LINEAR","output":30}]}],"asset":{"generator":"Soft8Soft Verge3D for Blender add-on","version":"2.0"},"bufferViews":[{"buffer":0,"byteLength":12,"byteOffset":0,"target":34963},{"buffer":0,"byteLength":96,"byteOffset":12,"target":34962},{"buffer":0,"byteLength":96,"byteOffset":108,"target":34962},{"buffer":0,"byteLength":64,"byteOffset":204,"target":34962},{"buffer":0,"byteLength":128,"byteOffset":268,"target":34962},{"buffer":0,"byteLength":270,"byteOffset":396,"target":34963},{"buffer":0,"byteLength":2184,"byteOffset":668,"target":34962},{"buffer":0,"byteLength":2184,"byteOffset":2852,"target":34962},{"buffer":0,"byteLength":1456,"byteOffset":5036,"target":34962},{"buffer":0,"byteLength":2912,"byteOffset":6492,"target":34962},{"buffer":0,"byteLength":1500,"byteOffset":9404,"target":34963},{"buffer":0,"byteLength":6024,"byteOffset":10904,"target":34962},{"buffer":0,"byteLength":6024,"byteOffset":16928,"target":34962},{"buffer":0,"byteLength":4016,"byteOffset":22952,"target":34962},{"buffer":0,"byteLength":8032,"byteOffset":26968,"target":34962},{"buffer":0,"byteLength":44058,"byteOffset":35000,"target":34963},{"buffer":0,"byteLength":116520,"byteOffset":79060,"target":34962},{"buffer":0,"byteLength":116520,"byteOffset":195580,"target":34962},{"buffer":0,"byteLength":77680,"byteOffset":312100,"target":34962},{"buffer":0,"byteLength":964,"byteOffset":389780},{"buffer":0,"byteLength":2892,"byteOffset":390744},{"buffer":0,"byteLength":964,"byteOffset":393636},{"buffer":0,"byteLength":3856,"byteOffset":394600},{"buffer":0,"byteLength":964,"byteOffset":398456},{"buffer":0,"byteLength":2892,"byteOffset":399420},{"buffer":0,"byteLength":964,"byteOffset":402312},{"buffer":0,"byteLength":2892,"byteOffset":403276},{"buffer":0,"byteLength":964,"byteOffset":406168},{"buffer":0,"byteLength":3856,"byteOffset":407132},{"buffer":0,"byteLength":964,"byteOffset":410988},{"buffer":0,"byteLength":2892,"byteOffset":411952}],"buffers":[{"byteLength":414844,"uri":"Batman.bin"}],"cameras":[{"extensions":{"S8S_v3d_camera_data":{"controls":"ORBIT","enablePan":true,"moveSpeed":1.0,"orbitMaxDistance":100.0,"orbitMaxPolarAngle":3.1415927410125732,"orbitMinDistance":0.0,"orbitMinPolarAngle":0.0,"orbitTarget":[0.0,2.8844807147979736,-0.0],"rotateSpeed":1.0,"viewportFitInitialAspect":1.0,"viewportFitType":"AUTO"}},"name":"Camera.001","perspective":{"aspectRatio":1.0,"yfov":0.6911112070083618,"zfar":1000.0,"znear":0.10000000149011612},"type":"perspective"}],"extensions":{"S8S_v3d_data":{"lights":[{"color":[1.0,1.0,1.0],"constantAttenuation":1.0,"decay":2,"distance":29.999982833862305,"intensity":500.0,"linearAttenuation":0.0,"name":"Light","profile":"blender","quadraticAttenuation":0.03333335240683057,"shadow":{"bias":-0.0018,"cameraFar":22.36068002489797,"cameraFov":0,"cameraNear":0.05000000074505806,"cameraOrthoBottom":-1,"cameraOrthoLeft":-1,"cameraOrthoRight":1,"cameraOrthoTop":1,"mapSize":512,"radius":1.0,"slopeScaledBias":2.5},"type":"point"},{"color":[1.0,1.0,1.0],"constantAttenuation":1.0,"decay":2,"distance":29.999982833862305,"intensity":800.0,"linearAttenuation":0.0,"name":"Light.001","profile":"blender","quadraticAttenuation":0.03333335240683057,"shadow":{"bias":-0.0018,"cameraFar":28.28427156356327,"cameraFov":0,"cameraNear":0.05000000074505806,"cameraOrthoBottom":-1,"cameraOrthoLeft":-1,"cameraOrthoRight":1,"cameraOrthoTop":1,"mapSize":512,"radius":1.0,"slopeScaledBias":2.5},"type":"point"},{"color":[1.0,1.0,1.0],"constantAttenuation":1.0,"decay":2,"distance":29.999982833862305,"intensity":1200.0,"linearAttenuation":0.0,"name":"Light.002","profile":"blender","quadraticAttenuation":0.03333335240683057,"shadow":{"bias":-0.0018,"cameraFar":34.64101653852108,"cameraFov":0,"cameraNear":0.05000000074505806,"cameraOrthoBottom":-1,"cameraOrthoLeft":-1,"cameraOrthoRight":1,"cameraOrthoTop":1,"mapSize":512,"radius":1.0,"slopeScaledBias":2.5},"type":"point"},{"color":[0,0,0],"name":"Ambient_Scene","profile":"blender","type":"ambient"}]}},"extensionsUsed":["S8S_v3d_material_data","S8S_v3d_camera_data","S8S_v3d_data","S8S_v3d_mesh_data","S8S_v3d_node_data","S8S_v3d_animation_data","S8S_v3d_scene_data"],"materials":[{"emissiveFactor":[0.8159675002098083,0.8159675002098083,0.8159675002098083],"extensions":{"S8S_v3d_material_data":{"useCastShadows":true}},"name":"Letras","pbrMetallicRoughness":{"metallicFactor":0.0,"roughnessFactor":0.5}},{"extensions":{"S8S_v3d_material_data":{"nodeGraph":{"edges":[{"fromNode":0,"fromOutput":0,"toInput":0,"toNode":1}],"nodes":[{"inputs":[[0.800000011920929,0.800000011920929,0.800000011920929,1.0],0.0,[1.0,0.20000000298023224,0.10000000149011612],[0.800000011920929,0.800000011920929,0.800000011920929,1.0],0.0,0.5,0.0,0.5,0.0,0.0,0.0,0.5,0.0,0.029999999329447746,1.4500000476837158,0.0,0.0,[0.0,0.0,0.0,1.0],1.0,[0.0,0.0,0.0],[0.0,0.0,0.0],[0.0,0.0,0.0]],"is_active_output":false,"name":"Principled BSDF","outputs":[[0,0,0,0]],"type":"BSDF_PRINCIPLED_BL"},{"inputs":[[0,0,0,0],[0,0,0,0],[0.0,0.0,0.0]],"is_active_output":true,"name":"Material Output","outputs":[],"type":"OUTPUT_MATERIAL_BL"}]},"useCastShadows":true}},"name":"Material"},{"extensions":{"S8S_v3d_material_data":{"nodeGraph":{"edges":[{"fromNode":0,"fromOutput":0,"toInput":0,"toNode":1}],"nodes":[{"inputs":[[0.005092724226415157,0.005092724226415157,0.005092724226415157,1.0],0.0,[1.0,0.20000000298023224,0.10000000149011612],[0.800000011920929,0.800000011920929,0.800000011920929,1.0],0.0,0.20068028569221497,0.0,0.6496598720550537,0.0,0.0,0.0,0.5,0.0,0.029999999329447746,1.4500000476837158,0.0,0.0,[0.0,0.0,0.0,1.0],1.0,[0.0,0.0,0.0],[0.0,0.0,0.0],[0.0,0.0,0.0]],"is_active_output":false,"name":"Principled BSDF","outputs":[[0,0,0,0]],"type":"BSDF_PRINCIPLED_BL"},{"inputs":[[0,0,0,0],[0,0,0,0],[0.0,0.0,0.0]],"is_active_output":true,"name":"Material Output","outputs":[],"type":"OUTPUT_MATERIAL_BL"}]},"useCastShadows":true}},"name":"Máscara"},{"extensions":{"S8S_v3d_material_data":{"nodeGraph":{"edges":[{"fromNode":1,"fromOutput":0,"toInput":0,"toNode":0}],"nodes":[{"inputs":[[0,0,0,0],[0,0,0,0],[0.0,0.0,0.0]],"is_active_output":true,"name":"Material Output","outputs":[],"type":"OUTPUT_MATERIAL_BL"},{"inputs":[[1.0,1.0,1.0,1.0],0.0,[1.0,0.20000000298023224,0.10000000149011612],[1.0,1.0,1.0,1.0],0.0,0.5,0.0,0.5,0.0,0.0,0.0,0.5,0.0,0.029999999329447746,1.4500000476837158,0.0,0.0,[0.17847418785095215,0.17847418785095215,0.17847418785095215,1.0],1.0,[0.0,0.0,0.0],[0.0,0.0,0.0],[0.0,0.0,0.0]],"is_active_output":false,"name":"Principled BSDF","outputs":[[0,0,0,0]],"type":"BSDF_PRINCIPLED_BL"}]},"useCastShadows":true}},"name":"Olhos"},{"extensions":{"S8S_v3d_material_data":{"nodeGraph":{"edges":[{"fromNode":1,"fromOutput":0,"toInput":0,"toNode":0}],"nodes":[{"inputs":[[0,0,0,0],[0,0,0,0],[0.0,0.0,0.0]],"is_active_output":true,"name":"Material Output","outputs":[],"type":"OUTPUT_MATERIAL_BL"},{"inputs":[[0.5493358969688416,0.29874810576438904,0.2152557373046875,1.0],0.0,[1.0,0.20000000298023224,0.10000000149011612],[0.4507859945297241,0.24620099365711212,0.17788800597190857,1.0],0.0,0.5,0.0,0.5,0.0,0.0,0.0,0.5,0.0,0.029999999329447746,1.4500000476837158,0.0,0.0,[0.0,0.0,0.0,1.0],1.0,[0.0,0.0,0.0],[0.0,0.0,0.0],[0.0,0.0,0.0]],"is_active_output":false,"name":"Principled BSDF","outputs":[[0,0,0,0]],"type":"BSDF_PRINCIPLED_BL"}]},"useCastShadows":true}},"name":"Pele"},{"extensions":{"S8S_v3d_material_data":{"nodeGraph":{"edges":[{"fromNode":1,"fromOutput":0,"toInput":0,"toNode":0}],"nodes":[{"inputs":[[0,0,0,0],[0,0,0,0]],"is_active_output":true,"name":"World Output","outputs":[],"type":"OUTPUT_WORLD_BL"},{"inputs":[[0.009298952296376228,0.009298952296376228,0.009298952296376228,1.0],1.0],"is_active_output":false,"name":"Background","outputs":[[0,0,0,0]],"type":"BACKGROUND_BL"}]},"useCastShadows":true}},"name":"Verge3D_Environment_World"}],"meshes":[{"extensions":{"S8S_v3d_mesh_data":{"colorLayers":{"Col":"COLOR_0"},"uvLayers":{"UVMap":"TEXCOORD_0"}}},"name":"Cube","primitives":[{"attributes":{"COLOR_0":4,"NORMAL":2,"POSITION":1,"TEXCOORD_0":3},"indices":0,"material":3,"mode":4},{"attributes":{"COLOR_0":9,"NORMAL":7,"POSITION":6,"TEXCOORD_0":8},"indices":5,"material":4,"mode":4},{"attributes":{"COLOR_0":14,"NORMAL":12,"POSITION":11,"TEXCOORD_0":13},"indices":10,"material":2,"mode":4}]},{"extensions":{"S8S_v3d_mesh_data":{"colorLayers":{},"uvLayers":{}}},"name":"Text","primitives":[{"attributes":{"NORMAL":17,"POSITION":16,"TEXCOORD_0":18},"indices":15,"material":0,"mode":4}]}],"nodes":[{"extensions":{"S8S_v3d_node_data":{"frustumCulling":true,"groupNames":[],"hidden":false,"renderOrder":0,"useShadows":true}},"mesh":0,"name":"Batema","rotation":[0.06849358230829239,0.0,-0.0,0.9976515769958496],"scale":[0.551140546798706,0.5074204206466675,0.506018340587616],"translation":[0.014599345624446869,1.7838187217712402,1.6587953567504883]},{"extensions":{"S8S_v3d_node_data":{"frustumCulling":true,"groupNames":["L-C"],"hidden":false,"light":0,"renderOrder":0}},"name":"Light","rotation":[-0.2841663062572479,0.7269423604011536,0.34203389286994934,0.5232754945755005],"scale":[0.9999999403953552,0.9999997615814209,0.9999998807907104],"translation":[-1.8203716278076172,13.818861961364746,12.759702682495117]},{"extensions":{"S8S_v3d_node_data":{"frustumCulling":true,"groupNames":["L-C"],"hidden":false,"light":1,"renderOrder":0}},"name":"Light.001","rotation":[-0.2841663062572479,0.7269423604011536,0.34203389286994934,0.5232754945755005],"scale":[0.9999999403953552,0.9999997615814209,0.9999998807907104],"translation":[-18.707061767578125,8.738619804382324,7.124705791473389]},{"extensions":{"S8S_v3d_node_data":{"frustumCulling":true,"groupNames":["L-C"],"hidden":false,"renderOrder":0}},"name":"Area","translation":[-0.12386226654052734,10.334488868713379,-0.7362439632415771]},{"extensions":{"S8S_v3d_node_data":{"frustumCulling":true,"groupNames":["L-C"],"hidden":false,"light":2,"renderOrder":0}},"name":"Light.002","rotation":[-0.2841663062572479,0.7269423604011536,0.34203389286994934,0.5232754945755005],"scale":[0.9999999403953552,0.9999997615814209,0.9999998807907104],"translation":[7.99324893951416,4.628637313842773,6.6100077629089355]},{"camera":0,"extensions":{"S8S_v3d_node_data":{"frustumCulling":true,"groupNames":["L-C"],"hidden":false,"renderOrder":0}},"name":"Camera","rotation":[-0.17027030885219574,1.401298464324817e-45,-1.401298464324817e-45,0.9853973984718323],"scale":[1.0,0.9999998807907104,0.9999998807907104],"translation":[0.0,13.571173667907715,30.0]},{"extensions":{"S8S_v3d_node_data":{"frustumCulling":true,"groupNames":["L-C"],"hidden":false,"renderOrder":0,"useShadows":true}},"mesh":1,"name":"Text","rotation":[0.7071068286895752,0.0,-0.0,0.7071068286895752],"scale":[1.6433619260787964,1.6433619260787964,1.6433619260787964],"translation":[0.0,-4.669867038726807,1.9170094728469849]},{"extensions":{"S8S_v3d_node_data":{"frustumCulling":true,"groupNames":["L-C"],"hidden":false,"renderOrder":0}},"name":"Empty","translation":[0.0,2.8844807147979736,-0.0]}],"scene":0,"scenes":[{"extensions":{"S8S_v3d_scene_data":{"aaMethod":"AUTO","light":3,"physicallyCorrectLights":true,"shadowMap":{"renderReverseSided":false,"renderSingleSided":true,"type":"PCFPOISSON"},"toneMapping":{"type":"filmicBlender"},"worldMaterial":5}},"extras":{"animFrameRate":30,"coordSystem":"Z_UP_RIGHT"},"name":"Scene","nodes":[0,1,2,4,3,5,6,7]}]}
